<svg width="25" height="24" viewBox="0 0 25 24" fill="none" xmlns="http://www.w3.org/2000/svg">
<g clip-path="url(#clip0_3154_11965)">
<path d="M24.2609 7.19688C24.2609 7.19688 24.0266 5.54219 23.3047 4.81563C22.3906 3.85938 21.3688 3.85469 20.9 3.79844C17.5438 3.55469 12.5047 3.55469 12.5047 3.55469H12.4953C12.4953 3.55469 7.45625 3.55469 4.1 3.79844C3.63125 3.85469 2.60938 3.85938 1.69531 4.81563C0.973438 5.54219 0.74375 7.19688 0.74375 7.19688C0.74375 7.19688 0.5 9.14219 0.5 11.0828V12.9016C0.5 14.8422 0.739062 16.7875 0.739062 16.7875C0.739062 16.7875 0.973437 18.4422 1.69062 19.1688C2.60469 20.125 3.80469 20.0922 4.33906 20.1953C6.26094 20.3781 12.5 20.4344 12.5 20.4344C12.5 20.4344 17.5438 20.425 20.9 20.1859C21.3688 20.1297 22.3906 20.125 23.3047 19.1688C24.0266 18.4422 24.2609 16.7875 24.2609 16.7875C24.2609 16.7875 24.5 14.8469 24.5 12.9016V11.0828C24.5 9.14219 24.2609 7.19688 24.2609 7.19688ZM10.0203 15.1094V8.36406L16.5031 11.7484L10.0203 15.1094Z" fill="white"/>
</g>
<defs>
<clipPath id="clip0_3154_11965">
<rect width="24" height="24" fill="white" transform="translate(0.5)"/>
</clipPath>
</defs>
</svg>
