<svg width="1281" height="181" viewBox="0 0 1281 181" fill="none" xmlns="http://www.w3.org/2000/svg">
<path d="M0.341797 176.752V3.95156H33.0542V74.9916H110.506V3.95156H143.218V176.752H110.506V105.472H33.0542V176.752H0.341797Z" fill="white"/>
<path d="M169.767 176.752V3.95156H282.817V34.4316H202.479V71.3916H268.385V101.872H202.479V146.272H282.817V176.752H169.767Z" fill="white"/>
<path d="M304.428 176.752V3.95156H333.773L391.019 118.672L448.266 3.95156H477.611V176.752H447.063V73.5516L396.792 176.752H385.247L334.975 73.5516V176.752H304.428Z" fill="white"/>
<path d="M492.128 176.752L545.045 3.95156H593.873L646.79 176.752H613.116L565.971 24.3516H572.225L525.802 176.752H492.128ZM523.878 140.752V110.272H615.28V140.752H523.878Z" fill="white"/>
<path d="M730.757 180.352C713.438 180.352 698.485 176.592 685.897 169.072C673.39 161.552 663.728 151.032 656.913 137.512C650.178 123.992 646.811 108.272 646.811 90.3516C646.811 72.4316 650.178 56.7116 656.913 43.1916C663.728 29.6716 673.39 19.1516 685.897 11.6316C698.485 4.11156 713.438 0.351562 730.757 0.351562C750.641 0.351562 767.318 5.27156 780.787 15.1116C794.337 24.9516 803.879 38.2716 809.411 55.0716L776.458 64.1916C773.251 53.7116 767.839 45.5916 760.222 39.8316C752.605 33.9916 742.783 31.0716 730.757 31.0716C719.772 31.0716 710.592 33.5116 703.216 38.3916C695.92 43.2716 690.427 50.1516 686.739 59.0316C683.051 67.9116 681.207 78.3516 681.207 90.3516C681.207 102.352 683.051 112.792 686.739 121.672C690.427 130.552 695.92 137.432 703.216 142.312C710.592 147.192 719.772 149.632 730.757 149.632C742.783 149.632 752.605 146.712 760.222 140.872C767.839 135.032 773.251 126.912 776.458 116.512L809.411 125.632C803.879 142.432 794.337 155.752 780.787 165.592C767.318 175.432 750.641 180.352 730.757 180.352Z" fill="white"/>
<path d="M903.001 180.352C885.682 180.352 870.729 176.592 858.141 169.072C845.634 161.552 835.972 151.032 829.157 137.512C822.422 123.992 819.055 108.272 819.055 90.3516C819.055 72.4316 822.422 56.7116 829.157 43.1916C835.972 29.6716 845.634 19.1516 858.141 11.6316C870.729 4.11156 885.682 0.351562 903.001 0.351562C920.319 0.351562 935.232 4.11156 947.74 11.6316C960.327 19.1516 969.989 29.6716 976.724 43.1916C983.539 56.7116 986.946 72.4316 986.946 90.3516C986.946 108.272 983.539 123.992 976.724 137.512C969.989 151.032 960.327 161.552 947.74 169.072C935.232 176.592 920.319 180.352 903.001 180.352ZM903.001 149.632C913.985 149.792 923.125 147.432 930.421 142.552C937.717 137.672 943.17 130.752 946.778 121.792C950.466 112.832 952.31 102.352 952.31 90.3516C952.31 78.3516 950.466 67.9516 946.778 59.1516C943.17 50.3516 937.717 43.5116 930.421 38.6316C923.125 33.7516 913.985 31.2316 903.001 31.0716C892.016 30.9116 882.876 33.2716 875.58 38.1516C868.284 43.0316 862.791 49.9516 859.103 58.9116C855.495 67.8716 853.691 78.3516 853.691 90.3516C853.691 102.352 855.495 112.752 859.103 121.552C862.791 130.352 868.284 137.192 875.58 142.072C882.876 146.952 892.016 149.472 903.001 149.632Z" fill="white"/>
<path d="M1003.74 176.752V3.95156H1059.78C1061.15 3.95156 1063.95 3.99156 1068.2 4.07156C1072.45 4.15156 1076.54 4.43156 1080.47 4.91156C1094.42 6.59156 1106.25 11.4316 1115.95 19.4316C1125.65 27.4316 1133.02 37.5916 1138.08 49.9116C1143.13 62.2316 1145.65 75.7116 1145.65 90.3516C1145.65 104.992 1143.13 118.472 1138.08 130.792C1133.02 143.112 1125.65 153.272 1115.95 161.272C1106.25 169.272 1094.42 174.112 1080.47 175.792C1076.54 176.272 1072.45 176.552 1068.2 176.632C1063.95 176.712 1061.15 176.752 1059.78 176.752H1003.74ZM1036.93 146.032H1059.78C1061.95 146.032 1064.87 145.992 1068.56 145.912C1072.25 145.752 1075.58 145.392 1078.54 144.832C1086.08 143.312 1092.21 139.792 1096.95 134.272C1101.76 128.752 1105.28 122.112 1107.53 114.352C1109.85 106.592 1111.02 98.5916 1111.02 90.3516C1111.02 81.7116 1109.81 73.5116 1107.41 65.7516C1105.08 57.9916 1101.52 51.4316 1096.7 46.0716C1091.89 40.7116 1085.84 37.3116 1078.54 35.8716C1075.58 35.2316 1072.25 34.8716 1068.56 34.7916C1064.87 34.7116 1061.95 34.6716 1059.78 34.6716H1036.93V146.032Z" fill="white"/>
<path d="M1167.29 176.752V3.95156H1280.34V34.4316H1200V71.3916H1265.91V101.872H1200V146.272H1280.34V176.752H1167.29Z" fill="white"/>
</svg>
