<svg width="313" height="64" viewBox="0 0 313 64" fill="none" xmlns="http://www.w3.org/2000/svg">
<g clip-path="url(#clip0_3155_1503)">
<path d="M45.4314 56.6544C45.4314 59.9729 43.0684 62.7418 39.9346 63.3963C38.334 63.7739 35.6594 64.1053 33.3301 64.0969C28.7306 64.0759 24.3543 63.111 20.416 61.3322C25.7695 60.77 30.2933 57.4221 32.5888 53.0841C33.8061 51.0955 35.9964 49.7656 38.5068 49.7656C42.3271 49.7656 45.4314 52.8492 45.4314 56.6544Z" fill="white"/>
<path d="M21.262 57.0596C18.6589 59.1279 15.0071 59.0146 12.543 56.9799C11.25 55.9688 9.32084 54.0935 7.87611 52.2727C5.02456 48.6773 3.05332 44.6666 1.99609 40.4922C5.7743 44.31 11.2247 45.7448 16.0601 44.8302C18.3809 44.5365 20.7902 45.4175 22.3529 47.3726C24.7369 50.3471 24.2483 54.6892 21.262 57.0596Z" fill="white"/>
<path d="M5.87574 38.4877C2.62825 37.7494 0.442196 34.8378 0.501164 31.6493C0.488528 30.0131 0.758099 27.3407 1.2846 25.0794C2.32919 20.6156 4.24567 16.5838 6.86556 13.1562C6.22533 18.4801 8.49563 23.6195 12.2317 26.8121C13.9081 28.4357 14.721 30.8606 14.1608 33.2981C13.31 37.0068 9.6034 39.3352 5.87574 38.4877Z" fill="white"/>
<path d="M10.8543 14.9298C9.40952 11.9427 10.332 8.42281 12.8718 6.48036C14.1481 5.44831 16.4141 3.99251 18.5202 2.99402C22.6732 1.0264 27.0369 0.00274295 31.3585 -0.09375C26.7842 2.72552 24.1643 7.7012 23.9832 12.5972C23.7515 14.913 22.3573 17.0568 20.0955 18.1434C16.6542 19.7964 12.5138 18.3574 10.8543 14.9298Z" fill="white"/>
<path d="M32.4538 4.118C33.8985 1.13091 37.2345 -0.345853 40.343 0.4177C41.9477 0.770109 44.5045 1.62595 46.5978 2.64123C50.7341 4.6508 54.2553 7.40715 57.0269 10.7131C51.9598 8.90908 46.4209 9.96631 42.4658 12.8863C40.503 14.1533 37.9505 14.4008 35.6886 13.3184C32.2474 11.6654 30.7943 7.5456 32.4496 4.118H32.4538Z" fill="white"/>
<path d="M54.4064 14.1972C57.6539 13.4588 60.893 15.1369 62.2282 18.0359C62.9527 19.5043 63.8751 22.0257 64.3806 24.2954C65.383 28.7676 65.4125 33.2315 64.549 37.452C62.8053 32.3798 58.5216 28.7299 53.7662 27.4671C51.5507 26.7287 49.7606 24.8953 49.2046 22.4578C48.3537 18.7491 50.683 15.0488 54.4064 14.2014V14.1972Z" fill="white"/>
<path d="M60.1821 37.5729C62.7852 39.6412 63.4886 43.2114 62.048 46.0559C61.3488 47.5368 59.942 49.8275 58.4804 51.6357C55.5952 55.2059 52.1118 58.0084 48.2578 59.9676C51.1515 55.4492 51.3452 49.8359 49.374 45.3469C48.5737 43.1611 48.8938 40.6271 50.4607 38.6679C52.8447 35.6934 57.2 35.1983 60.1863 37.5729H60.1821Z" fill="white"/>
<path d="M80.5 47.2637V16.4531H86.2452V28.8755H97.3061V16.4531H103.03V47.2637H97.3061V34.3337H86.2452V47.2637H80.5Z" fill="white"/>
<path d="M108.957 47.2637V16.4531H125.578V21.9113H114.702V29.1608H125.127V34.619H114.702V41.8056H125.578V47.2637H108.957Z" fill="white"/>
<path d="M130.896 47.2637V16.4531H138.769L147.109 39.7918L155.347 16.4531H163.22V47.2637H157.496V24.1516L149.421 47.2637H144.72L136.646 24.1516V47.2637H130.901H130.896Z" fill="white"/>
<path d="M166.467 47.2637L179.368 16.4531H183.884L196.865 47.2637H190.547L187.236 39.301H176.239L172.806 47.2637H166.467ZM178.328 33.8428H184.953L181.643 24.4956L178.332 33.8428H178.328Z" fill="white"/>
<path d="M220.217 38.675H226.965C225.752 41.4858 223.861 43.7136 221.291 45.354C218.722 46.9985 215.849 47.8166 212.673 47.8166C211.187 47.8166 209.742 47.6278 208.331 47.2461C206.92 46.8643 205.623 46.3315 204.435 45.635C203.251 44.9428 202.156 44.1038 201.154 43.122C200.151 42.1403 199.304 41.0579 198.609 39.8832C197.914 38.7085 197.375 37.4248 196.984 36.0319C196.592 34.639 196.402 33.2126 196.402 31.7443C196.402 29.6004 196.824 27.5489 197.67 25.5939C198.517 23.6388 199.646 21.9565 201.065 20.5427C202.48 19.1331 204.174 18.0045 206.136 17.1612C208.099 16.318 210.155 15.8984 212.311 15.8984C214.261 15.8984 216.136 16.2215 217.943 16.8676C219.75 17.5136 221.376 18.4366 222.816 19.6491C223.797 20.4881 224.589 21.3188 225.187 22.1327C225.786 22.9466 226.379 23.9997 226.965 25.2876H220.546C219.497 23.9325 218.33 22.9424 217.05 22.3257C215.765 21.709 214.228 21.3985 212.429 21.3985C209.199 21.3985 206.629 22.5271 204.721 24.78C203.929 25.6904 203.306 26.7686 202.851 28.0188C202.392 29.269 202.164 30.5234 202.164 31.7862C202.164 33.6741 202.628 35.4236 203.554 37.0388C204.481 38.654 205.745 39.9336 207.337 40.8775C208.933 41.8215 210.669 42.2914 212.551 42.2914C214.038 42.2914 215.369 42.0145 216.549 41.4565C217.728 40.8985 218.949 39.9713 220.217 38.6666V38.675Z" fill="white"/>
<path d="M246.324 15.9062C248.476 15.9062 250.536 16.3258 252.499 17.169C254.462 18.0123 256.151 19.1408 257.57 20.5589C258.99 21.9769 260.114 23.6718 260.953 25.6395C261.791 27.6071 262.212 29.6712 262.212 31.8318C262.212 34.7895 261.509 37.4913 260.106 39.9372C258.703 42.3789 256.783 44.3045 254.34 45.71C251.901 47.1154 249.201 47.816 246.244 47.816C244.007 47.816 241.885 47.4007 239.875 46.5742C237.866 45.7435 236.135 44.6234 234.69 43.2054C233.246 41.7873 232.1 40.0882 231.245 38.1164C230.394 36.1404 229.969 34.0595 229.969 31.8737C229.969 29.688 230.39 27.5651 231.237 25.5933C232.083 23.6173 233.229 21.9266 234.669 20.5127C236.114 19.1031 237.849 17.9829 239.871 17.1523C241.897 16.3216 244.045 15.9104 246.32 15.9104L246.324 15.9062ZM245.958 21.4021C243.136 21.4021 240.726 22.4174 238.73 24.448C236.733 26.4785 235.735 28.937 235.735 31.8276C235.735 33.2792 236.009 34.6511 236.552 35.939C237.096 37.2312 237.833 38.3388 238.759 39.2701C239.686 40.2015 240.798 40.9357 242.091 41.4769C243.388 42.0223 244.757 42.2908 246.202 42.2908C249.134 42.2908 251.568 41.3049 253.51 39.3372C255.452 37.3696 256.425 34.8902 256.425 31.9073C256.425 28.9244 255.435 26.3694 253.451 24.3809C251.467 22.3923 248.969 21.3979 245.958 21.3979V21.4021Z" fill="white"/>
<path d="M266.668 47.2637V16.4531H273.761C278.82 16.4531 282.581 17.2544 285.045 18.857C287.105 20.1744 288.689 21.9616 289.801 24.2229C290.908 26.4842 291.468 29.0433 291.468 31.9088C291.468 35.0846 290.778 37.8829 289.392 40.3079C288.01 42.7328 286.09 44.52 283.638 45.6737C282.383 46.2443 281.01 46.6512 279.519 46.8946C278.028 47.1379 276.149 47.2595 273.887 47.2595H266.672L266.668 47.2637ZM272.413 41.8056H273.66C276.958 41.8056 279.473 41.3441 281.204 40.4211C282.581 39.6744 283.672 38.5332 284.477 37.0019C285.281 35.4664 285.681 33.7715 285.681 31.913C285.681 29.8908 285.247 28.0952 284.371 26.5262C283.499 24.9571 282.29 23.795 280.753 23.0314C279.881 22.6119 278.908 22.3182 277.83 22.1546C276.756 21.991 275.324 21.9113 273.538 21.9113H272.413V41.8056Z" fill="white"/>
<path d="M295.926 47.2637V16.4531H312.546V21.9113H301.671V29.1608H312.096V34.619H301.671V41.8056H312.546V47.2637H295.926Z" fill="white"/>
</g>
<defs>
<clipPath id="clip0_3155_1503">
<rect width="312" height="64" fill="white" transform="translate(0.5)"/>
</clipPath>
</defs>
</svg>
