<svg width="454" height="451" viewBox="0 0 454 451" fill="none" xmlns="http://www.w3.org/2000/svg">
<path d="M315.088 398.716C315.088 421.981 298.523 441.392 276.553 445.981C265.332 448.628 246.581 450.951 230.252 450.892C198.007 450.745 167.326 443.98 139.717 431.51C177.248 427.569 208.962 404.098 225.055 373.686C233.589 359.745 248.944 350.422 266.543 350.422C293.326 350.422 315.088 372.039 315.088 398.716Z" fill="#E5E5E5"/>
<path d="M145.646 401.569C127.397 416.069 101.795 415.275 84.5211 401.01C75.4558 393.922 61.9316 380.775 51.8033 368.01C31.8123 342.804 17.9928 314.687 10.5811 285.422C37.0684 312.187 75.2786 322.245 109.178 315.834C125.448 313.775 142.339 319.951 153.294 333.657C170.007 354.51 166.582 384.951 145.646 401.569Z" fill="#E5E5E5"/>
<path d="M37.7807 271.393C15.014 266.216 -0.31149 245.804 0.101913 223.452C0.0133265 211.981 1.90317 193.246 5.59427 177.393C12.9174 146.099 26.353 117.834 44.7199 93.8047C40.2315 131.128 56.1476 167.158 82.3396 189.54C94.0921 200.922 99.7911 217.922 95.8638 235.01C89.899 261.01 63.9137 277.334 37.7807 271.393Z" fill="#E5E5E5"/>
<path d="M72.6823 106.214C62.5539 85.2729 69.0208 60.5965 86.8266 46.9788C95.7738 39.7436 111.66 29.5376 126.425 22.5376C155.54 8.74351 186.132 1.56709 216.428 0.890625C184.36 20.6553 165.993 55.5376 164.724 89.8611C163.099 106.096 153.325 121.126 137.468 128.743C113.343 140.332 84.3166 130.243 72.6823 106.214Z" fill="#E5E5E5"/>
<path d="M224.108 30.4219C234.236 9.4807 257.623 -0.872249 279.415 4.48069C290.666 6.95127 308.59 12.9512 323.265 20.0689C352.263 34.1571 376.949 53.4806 396.379 76.6571C360.856 64.01 322.025 71.4218 294.298 91.8923C280.537 100.775 262.643 102.51 246.786 94.9218C222.661 83.3335 212.473 54.4512 224.078 30.4219H224.108Z" fill="#E5E5E5"/>
<path d="M378.007 101.101C400.774 95.9243 423.482 107.689 432.842 128.013C437.921 138.307 444.388 155.983 447.932 171.895C454.959 203.248 455.166 234.542 449.113 264.13C436.888 228.571 406.857 202.983 373.519 194.13C357.987 188.954 345.437 176.101 341.539 159.013C335.574 133.013 351.904 107.071 378.007 101.13V101.101Z" fill="#E5E5E5"/>
<path d="M418.491 264.979C436.739 279.479 441.671 304.508 431.572 324.45C426.67 334.832 416.807 350.891 406.561 363.567C386.334 388.597 361.913 408.244 334.895 421.979C355.181 390.302 356.539 350.95 342.72 319.479C337.109 304.156 339.353 286.391 350.338 272.656C367.051 251.803 397.584 248.332 418.52 264.979H418.491Z" fill="#E5E5E5"/>
</svg>
