<svg width="215" height="44" viewBox="0 0 215 44" fill="none" xmlns="http://www.w3.org/2000/svg">
<g clip-path="url(#clip0_3155_1317)">
<path d="M31.2322 38.947C31.2322 41.2284 29.6114 43.1321 27.462 43.582C26.3642 43.8416 24.5296 44.0695 22.932 44.0637C19.7772 44.0493 16.7755 43.3859 14.0742 42.1629C17.7462 41.7764 20.849 39.4748 22.4235 36.4924C23.2584 35.1253 24.7607 34.2109 26.4826 34.2109C29.103 34.2109 31.2322 36.3309 31.2322 38.947Z" fill="#DC2017"/>
<path d="M14.6558 39.2338C12.8704 40.6558 10.3656 40.5779 8.67554 39.179C7.7886 38.4839 6.46543 37.1947 5.47449 35.9429C3.51862 33.471 2.16655 30.7136 1.44141 27.8438C4.03287 30.4685 7.77127 31.4549 11.0879 30.8261C12.6797 30.6242 14.3323 31.2299 15.4041 32.574C17.0393 34.619 16.7042 37.6042 14.6558 39.2338Z" fill="#DC2017"/>
<path d="M4.10127 26.4623C1.87382 25.9546 0.374415 23.9529 0.414861 21.7609C0.406194 20.636 0.591092 18.7987 0.952221 17.2441C1.6687 14.1752 2.98321 11.4033 4.78019 9.04688C4.34105 12.7071 5.89824 16.2403 8.46081 18.4353C9.61065 19.5515 10.1682 21.2186 9.78399 22.8944C9.20041 25.4441 6.65806 27.0449 4.10127 26.4623Z" fill="#DC2017"/>
<path d="M7.51625 10.2662C6.52532 8.21256 7.15802 5.79263 8.9001 4.4572C9.77548 3.74766 11.3298 2.7468 12.7743 2.06034C15.6229 0.707604 18.6159 0.00383891 21.5801 -0.0625C18.4426 1.87575 16.6456 5.29653 16.5214 8.66251C16.3625 10.2546 15.4062 11.7285 13.8548 12.4756C11.4945 13.612 8.65453 12.6227 7.51625 10.2662Z" fill="#DC2017"/>
<path d="M22.3314 2.83698C23.3223 0.783361 25.6104 -0.231915 27.7425 0.293028C28.8433 0.535309 30.5969 1.1237 32.0328 1.8217C34.8698 3.20328 37.285 5.09827 39.186 7.3711C35.7105 6.13085 31.9114 6.8577 29.1986 8.86517C27.8523 9.73623 26.1016 9.9064 24.5502 9.16225C22.1898 8.02584 21.1931 5.19346 22.3285 2.83698H22.3314Z" fill="#DC2017"/>
<path d="M37.3874 9.76788C39.6148 9.26025 41.8365 10.414 42.7523 12.407C43.2492 13.4165 43.8819 15.15 44.2286 16.7104C44.9162 19.7851 44.9364 22.854 44.3442 25.7556C43.1481 22.2684 40.21 19.7591 36.9482 18.8909C35.4286 18.3833 34.2008 17.1228 33.8194 15.4471C33.2358 12.8973 34.8335 10.3534 37.3874 9.77076V9.76788Z" fill="#DC2017"/>
<path d="M41.3507 25.8377C43.1361 27.2597 43.6186 29.7142 42.6306 31.6698C42.151 32.6879 41.186 34.2627 40.1835 35.5059C38.2046 37.9604 35.8153 39.8871 33.1719 41.2341C35.1566 38.1277 35.2895 34.2685 33.9375 31.1823C33.3886 29.6796 33.6081 27.9375 34.6828 26.5905C36.318 24.5455 39.3053 24.2052 41.3536 25.8377H41.3507Z" fill="#DC2017"/>
<path d="M31.2322 38.947C31.2322 41.2284 29.6114 43.1321 27.462 43.582C26.3642 43.8416 24.5296 44.0695 22.932 44.0637C19.7772 44.0493 16.7755 43.3859 14.0742 42.1629C17.7462 41.7764 20.849 39.4748 22.4235 36.4924C23.2584 35.1253 24.7607 34.2109 26.4826 34.2109C29.103 34.2109 31.2322 36.3309 31.2322 38.947Z" fill="#DC2017"/>
<path d="M14.6558 39.2338C12.8704 40.6558 10.3656 40.5779 8.67554 39.179C7.7886 38.4839 6.46543 37.1947 5.47449 35.9429C3.51862 33.471 2.16655 30.7136 1.44141 27.8438C4.03287 30.4685 7.77127 31.4549 11.0879 30.8261C12.6797 30.6242 14.3323 31.2299 15.4041 32.574C17.0393 34.619 16.7042 37.6042 14.6558 39.2338Z" fill="#DC2017"/>
<path d="M4.10127 26.4623C1.87382 25.9546 0.374415 23.9529 0.414861 21.7609C0.406194 20.636 0.591092 18.7987 0.952221 17.2441C1.6687 14.1752 2.98321 11.4033 4.78019 9.04688C4.34105 12.7071 5.89824 16.2403 8.46081 18.4353C9.61065 19.5515 10.1682 21.2186 9.78399 22.8944C9.20041 25.4441 6.65806 27.0449 4.10127 26.4623Z" fill="#DC2017"/>
<path d="M7.51625 10.2662C6.52532 8.21256 7.15802 5.79263 8.9001 4.4572C9.77548 3.74766 11.3298 2.7468 12.7743 2.06034C15.6229 0.707604 18.6159 0.00383891 21.5801 -0.0625C18.4426 1.87575 16.6456 5.29653 16.5214 8.66251C16.3625 10.2546 15.4062 11.7285 13.8548 12.4756C11.4945 13.612 8.65453 12.6227 7.51625 10.2662Z" fill="#DC2017"/>
<path d="M22.3314 2.83698C23.3223 0.783361 25.6104 -0.231915 27.7425 0.293028C28.8433 0.535309 30.5969 1.1237 32.0328 1.8217C34.8698 3.20328 37.285 5.09827 39.186 7.3711C35.7105 6.13085 31.9114 6.8577 29.1986 8.86517C27.8523 9.73623 26.1016 9.9064 24.5502 9.16225C22.1898 8.02584 21.1931 5.19346 22.3285 2.83698H22.3314Z" fill="#DC2017"/>
<path d="M37.3874 9.76788C39.6148 9.26025 41.8365 10.414 42.7523 12.407C43.2492 13.4165 43.8819 15.15 44.2286 16.7104C44.9162 19.7851 44.9364 22.854 44.3442 25.7556C43.1481 22.2684 40.21 19.7591 36.9482 18.8909C35.4286 18.3833 34.2008 17.1228 33.8194 15.4471C33.2358 12.8973 34.8335 10.3534 37.3874 9.77076V9.76788Z" fill="#DC2017"/>
<path d="M41.3507 25.8377C43.1361 27.2597 43.6186 29.7142 42.6306 31.6698C42.151 32.6879 41.186 34.2627 40.1835 35.5059C38.2046 37.9604 35.8153 39.8871 33.1719 41.2341C35.1566 38.1277 35.2895 34.2685 33.9375 31.1823C33.3886 29.6796 33.6081 27.9375 34.6828 26.5905C36.318 24.5455 39.3053 24.2052 41.3536 25.8377H41.3507Z" fill="#DC2017"/>
<path d="M55.4277 32.4948V11.3125H59.3684V19.8529H66.955V11.3125H70.8812V32.4948H66.955V23.6054H59.3684V32.4948H55.4277Z" fill="#38424B"/>
<path d="M74.9473 32.4948V11.3125H86.3474V15.065H78.8879V20.049H86.0382V23.8015H78.8879V28.7423H86.3474V32.4948H74.9473Z" fill="#38424B"/>
<path d="M89.9941 32.4948V11.3125H95.3937L101.114 27.3579L106.765 11.3125H112.165V32.4948H108.238V16.6052L102.7 32.4948H99.4759L93.9377 16.6052V32.4948H89.997H89.9941Z" fill="#38424B"/>
<path d="M114.393 32.4948L123.242 11.3125H126.339L135.243 32.4948H130.909L128.638 27.0204H121.095L118.741 32.4948H114.393ZM122.528 23.2679H127.073L124.802 16.8417L122.531 23.2679H122.528Z" fill="#38424B"/>
<path d="M151.26 26.5885H155.889C155.057 28.521 153.759 30.0526 151.997 31.1804C150.235 32.311 148.264 32.8734 146.086 32.8734C145.066 32.8734 144.075 32.7437 143.108 32.4812C142.14 32.2187 141.25 31.8524 140.435 31.3736C139.623 30.8977 138.872 30.3208 138.185 29.6459C137.497 28.971 136.916 28.2268 136.44 27.4192C135.963 26.6116 135.593 25.729 135.324 24.7714C135.056 23.8139 134.926 22.8332 134.926 21.8237C134.926 20.3498 135.215 18.9394 135.795 17.5953C136.376 16.2512 137.15 15.0946 138.124 14.1226C139.095 13.1535 140.256 12.3776 141.602 11.7979C142.949 11.2181 144.358 10.9297 145.838 10.9297C147.175 10.9297 148.461 11.1518 149.7 11.596C150.94 12.0401 152.055 12.6747 153.043 13.5083C153.716 14.0851 154.259 14.6562 154.669 15.2158C155.08 15.7753 155.487 16.4993 155.889 17.3848H151.486C150.766 16.4531 149.966 15.7724 149.088 15.3484C148.207 14.9244 147.152 14.711 145.919 14.711C143.703 14.711 141.94 15.4869 140.632 17.0357C140.088 17.6616 139.661 18.4029 139.349 19.2624C139.034 20.122 138.878 20.9844 138.878 21.8525C138.878 23.1505 139.196 24.3532 139.831 25.4637C140.467 26.5741 141.334 27.4538 142.426 28.1028C143.521 28.7518 144.711 29.0748 146.002 29.0748C147.022 29.0748 147.935 28.8845 148.744 28.5008C149.553 28.1172 150.391 27.4798 151.26 26.5828V26.5885Z" fill="#38424B"/>
<path d="M169.167 10.9375C170.644 10.9375 172.056 11.2259 173.403 11.8057C174.749 12.3854 175.907 13.1613 176.881 14.1362C177.855 15.1111 178.626 16.2763 179.201 17.6291C179.776 18.9818 180.065 20.4009 180.065 21.8863C180.065 23.9197 179.582 25.7772 178.62 27.4588C177.658 29.1374 176.341 30.4613 174.665 31.4276C172.992 32.3938 171.141 32.8755 169.112 32.8755C167.578 32.8755 166.122 32.5899 164.744 32.0217C163.366 31.4506 162.179 30.6805 161.188 29.7056C160.197 28.7307 159.411 27.5626 158.825 26.207C158.241 24.8485 157.949 23.4179 157.949 21.9151C157.949 20.4124 158.238 18.953 158.819 17.5973C159.4 16.2388 160.185 15.0765 161.173 14.1045C162.164 13.1353 163.355 12.3652 164.741 11.7941C166.131 11.223 167.604 10.9404 169.164 10.9404L169.167 10.9375ZM168.916 14.7159C166.98 14.7159 165.328 15.4139 163.958 16.8099C162.589 18.2059 161.904 19.8961 161.904 21.8834C161.904 22.8814 162.092 23.8246 162.465 24.71C162.837 25.5984 163.343 26.3599 163.979 27.0002C164.614 27.6405 165.377 28.1452 166.264 28.5173C167.154 28.8923 168.093 29.0769 169.084 29.0769C171.094 29.0769 172.764 28.399 174.096 27.0463C175.428 25.6936 176.095 23.989 176.095 21.9382C176.095 19.8875 175.416 18.1309 174.056 16.7638C172.695 15.3966 170.982 14.713 168.916 14.713V14.7159Z" fill="#38424B"/>
<path d="M183.119 32.4948V11.3125H187.984C191.454 11.3125 194.034 11.8634 195.724 12.9652C197.137 13.8709 198.223 15.0996 198.986 16.6542C199.746 18.2088 200.13 19.9683 200.13 21.9383C200.13 24.1217 199.656 26.0455 198.705 27.7126C197.758 29.3798 196.44 30.6085 194.759 31.4016C193.898 31.7939 192.956 32.0737 191.934 32.241C190.911 32.4083 189.622 32.4919 188.071 32.4919H183.122L183.119 32.4948ZM187.06 28.7423H187.915C190.177 28.7423 191.902 28.4251 193.089 27.7905C194.034 27.2771 194.782 26.4926 195.334 25.4398C195.886 24.3841 196.16 23.2189 196.16 21.9411C196.16 20.5509 195.863 19.3164 195.262 18.2377C194.664 17.159 193.835 16.36 192.78 15.8351C192.182 15.5467 191.515 15.3447 190.775 15.2323C190.038 15.1198 189.056 15.065 187.831 15.065H187.06V28.7423Z" fill="#38424B"/>
<path d="M203.188 32.4948V11.3125H214.588V15.065H207.128V20.049H214.278V23.8015H207.128V28.7423H214.588V32.4948H203.188Z" fill="#38424B"/>
</g>
<defs>
<clipPath id="clip0_3155_1317">
<rect width="214" height="44" fill="white" transform="translate(0.5)"/>
</clipPath>
</defs>
</svg>
