<svg width="270" height="141" viewBox="0 0 270 141" fill="none" xmlns="http://www.w3.org/2000/svg">
<path d="M75.227 1.26195C80.8328 0.81466 99.8842 -0.870327 98.8615 8.68606C98.7167 10.0456 98.6313 11.482 98.492 12.8434C99.8897 13.3566 105.477 15.4796 106.308 15.4994C116.269 15.6841 125.72 13.0277 135.552 16.1463C145.914 19.4332 142.598 29.6444 139.862 37.4271C151.949 43.0887 172.969 46.9178 186.605 44.9322C197.809 42.9122 209.367 42.3101 220.721 41.4877C226.202 41.0906 237.313 37.5504 240.954 41.6171L240.829 42.5087C234.643 46.4026 209.312 45.6629 205.608 47.8072C183.707 60.4892 181.336 55.0532 157.485 49.8641C157.536 52.6429 157.424 55.8138 157.388 58.6255C162.14 59.8822 172.743 63.4601 176.304 64.0275C181.367 64.8349 194.019 61.2677 200.416 61.1977C205.757 60.2187 214.535 64.7011 219.421 64.155C229.131 63.0682 238.825 61.9988 248.605 61.4849C232.529 68.2132 212.256 68.8727 194.857 69.3212C189.802 69.4519 181.764 65.2725 176.087 66.6142C167.907 68.5477 160.068 72.9388 152.163 75.9677C149.495 76.9521 148.626 78.9289 147.873 81.4038L145.46 88.7152C157.521 87.3145 167.453 90.4009 179.747 90.4945C187.914 90.5567 195.867 89.5565 203.807 89.9256C199.297 91.2327 177.251 96.812 174.113 96.0369C156.962 91.8 155.449 93.7619 138.745 102.759C138.652 111.26 136.27 115.896 131.543 122.982C120.541 127.742 116.503 125.467 105.274 125.212C100.962 125.113 93.9315 126.393 89.5042 127.213C81.3238 140.201 83.9627 140.299 67.5525 140.346C63.3945 136.34 58.9186 131.562 54.8374 127.397L40.7646 132.016C33.1558 129.581 22.7344 122.325 23.6067 113.255C14.9196 107.625 8.59656 101.662 0.0214844 96.4492C5.66094 69.9571 7.01478 81.6116 23.1086 64.4729C24.0749 60.8097 24.4695 57.8846 25.0028 54.1269C18.8865 50.6172 12.9886 41.1894 17.477 35.2729C21.9552 29.3692 37.782 33.8444 43.5178 27.5026C46.87 23.7958 55.3989 19.5585 58.3619 15.7168C64.6529 7.56145 63.927 2.89264 75.227 1.26195Z" fill="#DC2017"/>
<path d="M104.322 49.3101C107.446 49.6425 110.055 50.156 112.526 52.2809C114.342 53.812 115.458 56.0198 115.618 58.3954C115.951 62.8218 113.848 65.6831 111.198 68.8198C123.746 74.5999 120.758 86.8666 109.067 91.6921C108.324 91.999 102.903 92.9174 102.785 93.2085C97.9957 104.989 87.7841 112.002 78.372 99.6071C76.8302 99.5024 76.892 99.9132 75.4402 101.153C70.3262 104.688 62.174 105.021 58.1444 99.659C56.4484 97.3667 55.7241 94.4936 56.1297 91.6669C56.8634 86.3984 59.6346 84.1423 63.5028 81.2227C52.9466 60.9434 76.1552 44.848 93.5316 53.2988C97.8188 50.8354 99.6432 50.0791 104.322 49.3101Z" fill="#FF8F89"/>
<path d="M259.277 85.5986C263.341 85.0486 266.152 85.1839 269.426 87.6691L269.308 88.2876C265.69 89.952 257.79 88.9927 253.632 88.6275C249.364 88.1814 245.668 88.0783 241.369 87.9712C247.046 86.1015 253.295 86.0118 259.277 85.5986Z" fill="#DC2017"/>
<path d="M258.902 32.1567C262.879 32.3294 265.142 34.0703 268.455 36.1432L263.396 40.2392L262.903 40.6914C260.679 41.073 256.803 39.053 256.255 36.2963C256.568 34.346 257.531 33.5796 258.902 32.1567Z" fill="#DC2017"/>
</svg>
