<svg width="262" height="161" viewBox="0 0 262 161" fill="none" xmlns="http://www.w3.org/2000/svg">
<path d="M121.016 29.4766C123.065 30.3368 125.361 38.8732 125.105 40.2763C123.815 47.4434 126.699 46.144 131.443 49.1061C131.12 48.9035 132.714 51.9811 133.777 52.8628C135.513 52.0126 139.061 50.5439 140.048 49.1071C136.177 47.4337 132.221 44.807 134.393 39.836C138.055 39.6923 144.44 43.3139 147.239 44.0703C146.66 43.9142 155.227 41.7878 155.597 41.7063C158.624 43.5756 162.855 46.2918 165.815 48.1312C176.612 54.831 160.91 56.2422 170.16 62.0671C170.948 62.5614 170.938 63.7413 171.119 64.7052C170.464 67.5376 169.876 68.0887 167.893 70.2406L166.024 70.5257C160.18 65.8075 167.371 56.4978 153.491 48.6381C152.154 49.3279 147.922 50.8372 147.467 51.3193C149.355 52.272 152.239 53.4138 153.188 55.1622C153.301 57.2201 153.596 58.6813 152.524 60.4353C147.951 62.163 144.545 57.0475 140.607 56.1846C138.871 55.8023 136.528 59.5474 132.667 59.788C128.483 58.573 130.532 56.5143 129.669 56.1002C126.823 54.7457 120.732 53.244 118.749 50.5314C115.827 46.5328 120.153 43.3456 120.466 41.4568C114.385 36.592 114.422 34.1376 121.016 29.4766Z" fill="#DC2017"/>
<path d="M96.5304 101.105C101.815 101.003 101.208 103.794 105.278 102.043C106.293 101.607 107.118 101.553 108.152 101.786C109.367 103.41 109.044 102.632 108.911 104.919C108.646 109.463 110.363 107.18 113.228 110.471C113.854 114.359 113.029 114.658 111.482 118.75L111.871 119.203C117.393 114.221 118.617 113.412 125.002 109.608C128.009 111.094 130.856 111.963 132.146 114.748C131.472 117.762 131.396 117.264 128.863 119.711C124.243 125.545 122.307 122.228 115.23 124.385C114.566 128.082 114.044 128.674 110.771 130.462L109.67 130.123C107.071 127.052 106.255 115.644 105.382 110.804C103.048 108.152 91.8627 110.711 90.4775 105.971C92.4983 103.029 93.4281 102.725 96.5304 101.105Z" fill="#DC2017"/>
<path d="M71.4079 78.1123C72.1764 76.1158 72.5464 75.7306 73.9221 74.1889C77.6032 72.7024 82.3943 77.3562 81.1514 80.8039C78.6183 82.4019 74.7854 83.342 73.7133 84.9104C77.3374 89.0989 75.4779 91.6866 72.1858 95.1914C74.2636 96.0019 75.7911 96.3661 76.977 98.2644C78.2103 103.985 76.218 102.878 72.9639 106.869C74.2921 109.601 76.2749 107.834 77.1762 111.05C77.6885 112.841 77.5272 114.594 77.8497 115.996C74.4248 115.353 60.8106 112.731 58.6759 110.794C58.1162 109.258 57.5091 108.159 58.3819 106.401C59.0175 105.131 60.1465 104.178 61.5031 103.765C65.4973 102.535 68.2297 105.19 71.1897 107.445C69.8331 102.593 65.4689 85.2126 67.2905 80.9469C68.7231 79.1544 69.3207 78.9637 71.4079 78.1123Z" fill="#DC2017"/>
<path d="M154.536 66.7068C156.974 66.476 157.657 66.3497 159.886 67.3486C161.575 69.9763 160.446 69.8572 160.712 73.4784C160.987 77.3332 162.106 73.9665 165.199 76.5065L165.332 78.0578C164.753 79.9933 162.657 81.0125 160.901 82.1862C164.317 83.5067 166.414 83.7194 167.467 87.3482C167.144 88.4895 166.518 88.8537 165.56 89.4496C158.274 93.9766 162.059 92.5397 162.571 98.6847C160.37 101.402 158.454 103.056 155.029 101.619C148.54 93.9995 149.782 83.2531 156.424 76.1423C153.663 75.2442 152.79 75.0954 151.86 72.3152C152.154 69.8286 153.103 68.7521 154.536 66.7068Z" fill="#DC2017"/>
<path d="M127.107 80.084L128.606 80.3643C130.618 82.3656 129.536 82.4075 130.57 85.9019C136.006 90.4146 148.292 87.702 141.253 101.453C137.107 102.837 136.737 99.7603 132.316 98.5809L132.145 98.5361C132.667 103.071 130.504 107.484 125.589 105.758C121.481 100.623 125.532 100.36 124.897 97.0392C123.312 88.6831 119.394 87.6906 127.107 80.084Z" fill="#DC2017"/>
<path d="M133.522 6.05469C143.237 6.73898 132.858 20.9212 130.789 24.3259L134.489 25.2594C136.121 27.1795 135.78 26.3136 136.026 28.7252C134.195 33.0759 131.416 34.2507 127.061 33.477C124.518 26.3703 129.423 25.8813 122.573 24.4541C122.298 24.3953 122.222 23.0642 122.156 22.5439C123.228 19.9244 123.93 20.0882 126.406 18.1233C124.718 16.309 121.35 17.9682 119.917 13.4673C121.331 8.86517 129.271 6.63515 133.522 6.05469Z" fill="#DC2017"/>
<path d="M77.8501 115.996C79.6811 113.521 77.8217 108.772 81.6166 108.289C85.1838 107.834 96.5306 113.14 98.2668 115.921L97.5362 120.008C93.6844 121.782 88.3146 117.192 86.3128 119.969C84.0928 123.061 81.1043 124.632 77.3378 122.242C76.4555 119.987 76.6643 118.68 77.7173 116.303C77.7553 116.2 77.8026 116.098 77.8501 115.996Z" fill="#DC2017"/>
<path d="M94.9553 126.486C99.1392 127.012 107.327 125.262 105.951 133.325C102.223 137.586 97.9533 133.581 91.7391 136.992C88.0011 135.425 80.4968 134.446 78.7891 130.39C81.6068 127.65 88.836 128.441 94.9553 126.486Z" fill="#DC2017"/>
<path d="M59.7674 37.547C63.3156 37.0938 64.7387 36.5257 67.8126 38.6388C71.3513 41.0707 71.3419 47.1427 69.0555 50.1944C67.3193 51.4847 66.9588 51.6018 64.7957 51.6824L63.8943 50.8127C60.6117 48.6061 52.187 49.2263 51.5703 43.4363C52.7752 40.9046 57.1963 38.8161 59.7674 37.547Z" fill="#DC2017"/>
<path d="M161.148 134.666C170.161 132.968 171.48 146.597 159.052 148.395C155.143 147.84 153.312 148.167 151.187 144.564C151.139 139.914 157.382 136.242 161.148 134.666Z" fill="#DC2017"/>
<path d="M70.0414 12.0661C74.7187 11.9706 79.7565 11.6674 80.2024 17.27C79.1588 20.2279 75.9616 22.7219 73.419 24.4302C60.2696 29.0964 61.1803 15.2538 70.0414 12.0661Z" fill="#DC2017"/>
<path d="M97.7915 142.253C98.9584 142.153 100.135 142.096 101.302 142.079C105.571 142.047 110.837 142.646 110.789 147.788C109.916 149.99 107.051 151.613 105.03 153.013C101.226 154.075 98.8257 155.237 95.2584 152.879C92.3174 148.279 94.6986 145.877 97.7915 142.253Z" fill="#DC2017"/>
<path d="M166.272 111.421C170.92 111.003 178.994 110.559 179.763 116.457C179.127 118.824 176.338 120.282 174.25 121.694C172.268 123.442 167.106 124.217 164.621 122.553C161.158 117.973 163.312 115.308 166.272 111.421Z" fill="#DC2017"/>
<path d="M222.721 51.1215C223.186 51.0733 223.66 51.0401 224.135 51.0221C228.375 50.8542 235.434 51.1994 235.472 56.4817C234.533 58.9952 231.677 60.5556 229.419 62.1073C218.281 65.8935 214.752 58.6282 222.721 51.1215Z" fill="#DC2017"/>
<path d="M61.4651 118.178C64.2448 118.107 68.884 118.838 71.3318 120.26C72.9067 122.304 72.6032 121.394 72.6221 123.898C71.8442 126.189 68.7607 128.042 66.721 129.546C61.6927 130.624 59.0742 131.863 55.9529 126.779C55.118 122.811 57.7081 119.187 61.4651 118.178Z" fill="#DC2017"/>
<path d="M218.177 74.9937C225.283 75.3226 225.577 87.6993 212.883 87.8481C209.496 87.3313 207.674 87.46 206.128 84.2383C206.745 79.4262 214.059 76.2083 218.177 74.9937Z" fill="#DC2017"/>
<path d="M145.305 63.4432C147.572 63.3537 150.988 62.9123 152.8 64.0256L153.122 65.7958C151.453 69.1485 149.906 67.9223 148.208 70.1734C147.402 71.247 150.447 74.5898 147.914 77.4797L146.149 77.311C141.88 75.5804 138.484 75.5881 134.859 71.6627C135.372 68.0129 140.561 67.6926 145.305 63.4432Z" fill="#DC2017"/>
<path d="M138.142 23.3076C139.935 23.511 148.36 25.7345 151.32 26.2945C151.974 28.2197 152.193 28.9591 152.506 30.9859C150.115 33.916 148.113 30.0822 144.053 35.5655C141.529 37.5027 137.013 38.1555 134.423 36.0329L134.395 34.1338C135.448 31.9038 136.785 32.0832 138.275 31.1232C140.353 29.7777 136.747 28.1773 138.142 23.3076Z" fill="#DC2017"/>
<path d="M176.612 71.2148C179.619 71.6182 183.623 79.3478 182.57 82.1833C180.34 83.5897 179.942 84.3067 178.471 86.5091C175.217 86.7713 173.974 87.1975 171.555 85.364C169.81 81.0792 173.728 74.2802 176.612 71.2148Z" fill="#DC2017"/>
<path d="M101.672 66.0901C113.389 65.4926 110.201 75.4906 103.911 80.6135C103.626 80.561 103.579 80.5324 103.313 80.3808C95.3058 75.6832 96.4538 74.6258 101.672 66.0901Z" fill="#DC2017"/>
<path d="M120.543 131.582C123 131.975 125.884 139.131 127.412 141.727C125.818 142.925 123.73 145.134 122.26 146.601C121.767 146.676 121.264 146.742 120.761 146.801C118.18 147.098 117.554 146.953 115.752 145.51C114.148 141.225 117.184 134.147 120.543 131.582Z" fill="#DC2017"/>
<path d="M112.715 13.3286C114.442 13.5786 114.727 13.7805 116.083 14.8883C118.228 19.332 113.408 26.8857 109.689 29.4614C107.953 25.3252 106.672 22.7905 104.48 18.8688C107.744 15.3283 108.105 14.4396 112.715 13.3286Z" fill="#DC2017"/>
<path d="M40.1279 103.829C40.9628 103.767 41.7976 103.715 42.6325 103.672C50.7821 103.262 55.4688 104.369 55.706 113.297C52.7555 113.919 43.2018 111.722 41.3992 108.402C41.1336 107.905 40.3272 104.609 40.1279 103.829Z" fill="#DC2017"/>
<path d="M47.2813 85.2681C50.2319 86.0432 57.262 88.8702 59.0741 91.3844C60.1082 92.827 59.6433 95.2125 59.4536 96.9583C52.5943 96.6866 43.1543 94.0408 47.2813 85.2681Z" fill="#DC2017"/>
<path d="M85.1455 86.312C88.2858 86.9851 92.5645 88.0235 93.3425 91.3319C92.1471 94.2428 89.244 95.2201 86.3124 96.9029C84.0259 97.0869 81.2273 97.6132 79.3867 96.3709C78.3241 92.0699 83.0962 92.9862 85.1455 86.312Z" fill="#DC2017"/>
<path d="M26.4385 80.7202C29.759 81.1712 36.0301 83.6978 38.364 86.3398C39.7491 87.8987 39.2274 90.1584 38.9902 92.2093C31.4288 91.867 24.1141 89.7294 26.4385 80.7202Z" fill="#DC2017"/>
<path d="M89.4427 56.209C92.5545 56.8605 95.6378 59.5094 96.0268 62.8515C95.2868 65.4177 93.674 66.5593 91.6912 68.346C88.0006 65.9314 85.6857 66.0786 85.1924 61.4456C85.9134 59.0668 87.5927 57.8714 89.4427 56.209Z" fill="#DC2017"/>
<path d="M186.726 89.3896C188.88 89.2132 189.743 89.012 191.593 90.2315C193.87 94.3666 191.612 97.0954 188.311 99.7889C188.007 99.7383 187.713 99.6811 187.419 99.6173C181.793 98.413 180.123 92.6104 186.726 89.3896Z" fill="#DC2017"/>
<path d="M98.4656 0C100.686 0.398065 102.498 1.27381 103.646 3.30294C104.3 4.47778 104.414 5.87916 103.968 7.14906C103.2 9.3603 101.473 9.69963 99.4712 10.6385C96.8811 10.796 96.3594 10.6359 94.6802 9.22052C93.0483 5.34351 95.553 2.25653 98.4656 0Z" fill="#DC2017"/>
<path d="M132.544 149.628C135.001 149.539 135.533 149.804 137.107 151.19C138.284 155.627 136.092 158.164 132.497 160.445C128.521 158.903 127.079 156.951 127.819 152.743C129.783 150.293 129.328 150.971 132.544 149.628Z" fill="#DC2017"/>
<path d="M196.432 47.9922L198.794 48.4892C204.05 52.945 201.413 56.2555 196.356 58.7248C194.326 58.1172 193.927 57.7502 192.343 56.4332C190.379 51.8865 192.656 50.2274 196.432 47.9922Z" fill="#DC2017"/>
<path d="M92.0428 72.3311C98.0198 76.5882 95.7333 81.5652 88.6652 83.0135C81.7015 78.2405 86.0183 74.1893 92.0428 72.3311Z" fill="#DC2017"/>
<path d="M98.5606 85.3966C105.097 85.0324 109.689 87.8775 105.733 94.6146C103.636 95.363 103.19 95.5089 100.951 95.2486C96.815 92.6371 97.555 89.8463 98.5606 85.3966Z" fill="#DC2017"/>
<path d="M119.28 68.6729C125.788 70.1154 125.494 74.897 120.58 78.7089L117.326 78.4667C112.459 74.6367 114.707 71.0212 119.28 68.6729Z" fill="#DC2017"/>
<path d="M158.264 5.6084C162.087 5.66398 163.852 6.06634 165.066 9.85029C164.743 12.3178 164.155 12.8554 162.523 14.7423C159.668 15.2108 159.971 15.5672 157.476 14.6744C154.364 11.0179 155.228 8.8691 158.264 5.6084Z" fill="#DC2017"/>
<path d="M213.225 32.501C213.348 32.5296 213.471 32.5593 213.595 32.5902C221.185 34.4916 218.196 39.8564 213.111 42.7921L210.824 42.0598C206.46 37.9998 208.481 34.5283 213.225 32.501Z" fill="#DC2017"/>
<path d="M71.7973 58.6237C73.7232 58.3614 74.7003 58.1079 76.5598 58.8043C79.7665 61.9521 79.5579 64.3175 76.5314 67.5721C72.6511 67.6618 70.6872 67.6332 69.2451 63.8016C69.4728 61.2196 70.118 60.6231 71.7973 58.6237Z" fill="#DC2017"/>
<path d="M102.811 54.2056C104.755 54.4231 105.23 54.7788 106.833 55.796C109.395 59.9364 107.44 61.9519 104.091 64.6575L101.976 64.4684C97.3174 61.3371 98.9493 57.0243 102.811 54.2056Z" fill="#DC2017"/>
<path d="M184.753 36.3867L186.366 36.9264C190.996 41.4986 188.842 44.8224 183.747 47.0641C177.078 43.9813 179.791 39.1499 184.753 36.3867Z" fill="#DC2017"/>
<path d="M141.235 108.28C144.309 109.407 145.931 112.009 144.888 115.365C144.138 117.769 142.525 118.117 140.486 119.187C133.759 116.009 136.017 111.407 141.235 108.28Z" fill="#DC2017"/>
<path d="M90.6104 41.1621C92.432 41.6527 92.8969 42.096 94.32 43.2558C96.3977 47.7762 94.1965 49.614 90.5534 52.1446C84.4436 50.0824 85.3639 44.488 90.6104 41.1621Z" fill="#DC2017"/>
<path d="M88.4564 27.2913C91.6632 27.0424 93.3424 26.4267 95.3063 29.1463L94.8794 30.8445C93.314 32.9798 91.8529 33.3472 89.3767 34.3214C86.7772 34.9046 87.3179 35.1523 84.9746 34.3965C83.0107 30.9253 85.6008 28.8828 88.4564 27.2913Z" fill="#DC2017"/>
<path d="M48.107 66.0328C50.6116 66.0573 49.957 65.7016 51.769 67.0794C52.0821 71.553 48.6763 73.0042 44.9762 74.0406C42.3482 73.7907 41.5228 73.7688 40.3369 71.5301C40.9062 68.2846 45.4315 66.9803 48.107 66.0328Z" fill="#DC2017"/>
<path d="M200.436 65.3541C202.087 65.3027 202.798 66.0472 203.415 67.3174C202.789 71.8997 198.795 73.0972 194.905 73.5749C193.719 73.3175 193.159 72.8894 192.135 72.2467C190.55 68.001 197.239 66.4621 200.436 65.3541Z" fill="#DC2017"/>
<path d="M143.701 125.627C145.741 125.599 146.035 125.609 147.288 127.039C147.041 131.558 144.508 132.835 140.457 133.637C137.886 133.403 137.022 133.364 135.922 131.146C136.539 128.061 141.092 126.602 143.701 125.627Z" fill="#DC2017"/>
<path d="M37.9271 53.1406C39.5305 54.5745 39.0941 54.2018 39.8626 56.3742C38.7905 60.791 33.4966 61.2326 29.7586 61.3651L28.5822 60.3231C27.4342 55.4294 34.1038 54.3574 37.9271 53.1406Z" fill="#DC2017"/>
<path d="M101.654 41.1045C107.232 42.037 111.245 45.5266 107.28 51.11C103.978 49.4216 100.876 48.3953 99.2344 45.2623C99.7752 42.627 99.7183 43.271 101.654 41.1045Z" fill="#DC2017"/>
<path d="M59.5486 77.7217C62.1577 77.9925 61.5031 77.571 63.3626 79.1271L63.1917 80.8166C61.2374 83.6159 59.3684 84.4473 56.4653 86.0853C55.915 86.2722 54.8713 86.337 54.2547 86.4038L53.2776 85.274C52.4806 80.5515 55.7632 78.8467 59.5486 77.7217Z" fill="#DC2017"/>
<path d="M204.391 44.1812C205.861 44.1878 207 44.3558 208.442 44.5478C210.463 46.1993 209.988 45.3728 210.482 47.8086C209.988 50.4899 208.717 51.8048 207.038 53.9605L205.406 54.2193C202.332 51.9959 202.664 47.1719 204.391 44.1812Z" fill="#DC2017"/>
<path d="M110.068 80.4578C113.759 80.2948 115.372 79.5854 116.975 83.0789C116.918 85.6274 115.704 87.2102 114.375 89.3859L112.497 90.0476C109.005 88.3505 109.081 83.7663 110.068 80.4578Z" fill="#DC2017"/>
<path d="M149.868 104.237C151.633 104.394 152.145 104.56 153.824 105.138C157.211 108.831 154.28 111.454 151.69 114.67C150.836 114.83 150.437 114.522 149.64 114.129C147.335 110.659 147.439 107.479 149.868 104.237Z" fill="#DC2017"/>
<path d="M155.294 24.6724C160.778 25.6803 164.649 28.659 161.66 34.3826C161.395 34.2981 161.12 34.2089 160.854 34.1147C158.16 33.1642 155.285 31.6837 154.014 29.0155C153.9 26.3969 153.919 27.1267 155.294 24.6724Z" fill="#DC2017"/>
<path d="M110.97 97.4629C116.786 97.4553 120.249 100.162 118.949 106.245C116.254 106.426 112.507 104.602 110.979 102.287C109.794 100.482 110.486 99.3927 110.97 97.4629Z" fill="#DC2017"/>
<path d="M124.603 66.4252L124.765 66.4214C129.973 66.3417 133.578 69.574 133.626 74.8066C127.222 75.5541 123.892 73.3116 124.603 66.4252Z" fill="#DC2017"/>
<path d="M62.1104 60.8896C67.3284 62.6206 71.1423 65.6488 67.1766 70.9879C64.8522 69.5425 60.8486 67.4821 59.9473 65.0379C60.2129 62.4933 60.2604 63.0909 62.1104 60.8896Z" fill="#DC2017"/>
<path d="M168.282 37.0723C171.622 37.9608 173.823 38.9877 174.924 42.4726C174.705 45.4584 175.009 44.4597 173.102 46.9529C170.569 45.298 167.021 43.482 166.024 40.7614C166.508 38.2747 166.319 38.9947 168.282 37.0723Z" fill="#DC2017"/>
<path d="M112.337 54.1161C118.143 53.9934 121.141 57.308 121.122 62.8339C114.841 63.0436 111.682 60.8631 112.337 54.1161Z" fill="#DC2017"/>
<path d="M183.282 19.8047C187.049 20.9386 186.555 26.0361 184.829 28.7033C184.639 28.9854 182.409 30.1549 181.944 30.4123C181.66 30.227 181.385 30.034 181.11 29.8334C179.117 28.3631 179.041 27.6726 178.719 25.6656C179.335 23.1952 181.432 21.5517 183.282 19.8047Z" fill="#DC2017"/>
<path d="M195.445 32.0947C198.225 32.805 198.822 36.118 198.139 38.6137C197.39 41.377 196.612 41.4072 194.268 42.7104C191.802 41.1639 191.384 40.6223 190.995 37.9251C191.65 35.5438 193.69 33.8388 195.445 32.0947Z" fill="#DC2017"/>
<path d="M80.4301 46.5942C83.4281 47.3664 84.6709 52.537 82.6406 54.7082C82.1378 55.2414 80.2404 56.0828 79.4909 56.4566C79.1683 56.2654 78.8457 56.0628 78.5327 55.8492C76.5688 54.4782 76.6352 54.0488 76.2842 52.1433C76.8534 49.824 78.7319 48.2712 80.4301 46.5942Z" fill="#DC2017"/>
<path d="M179.099 50.709C181.907 50.9937 185.37 51.7326 186.992 54.2669C187.4 56.8031 187.296 56.0923 186.129 58.6418C181.015 58.6037 178.491 55.6555 179.099 50.709Z" fill="#DC2017"/>
</svg>
