<svg width="262" height="141" viewBox="0 0 262 141" fill="none" xmlns="http://www.w3.org/2000/svg">
<path d="M122.887 2.04323C160.782 -2.71305 195.335 24.2917 200.045 62.3441C204.755 100.397 177.836 135.073 139.935 139.776C102.072 144.474 67.5803 117.477 62.8746 79.4623C58.1698 41.4478 85.0313 6.79474 122.887 2.04323Z" fill="#DC2017"/>
<path d="M148.042 58.7283C154.518 58.0371 162.371 59.555 167.856 63.1094C173.172 66.559 176.861 72.0318 178.078 78.2683C182.068 97.9189 165.15 112.08 147.623 115.564C140.078 116.391 132.308 115.306 125.93 110.899C120.777 107.328 117.28 101.817 116.233 95.6182C112.715 75.6044 130.265 61.8194 148.042 58.7283Z" fill="#FF8F89"/>
</svg>
