<?xml version="1.0" encoding="utf-8"?><svg xmlns="http://www.w3.org/2000/svg" xmlns:xlink="http://www.w3.org/1999/xlink"><symbol fill="none" viewBox="0 0 25 24" id="arrow" xmlns="http://www.w3.org/2000/svg"><path d="M7.544 18.394L6.5 17.35l9.84-9.85H7.394V6h11.5v11.5h-1.5V8.554l-9.85 9.84z" fill="currentColor"/></symbol><symbol fill="none" viewBox="0 0 24 24" id="home" xmlns="http://www.w3.org/2000/svg"><path d="M4.5 20.5V9.25L12 3.606l7.5 5.644V20.5h-5.596v-6.692h-3.808V20.5H4.5z" fill="currentColor"/></symbol><symbol fill="none" viewBox="0 0 25 24" id="social_facebook" xmlns="http://www.w3.org/2000/svg"><g clip-path="url(#cclip0_3154_11963)"><path d="M12.5 0C5.873 0 .5 5.373.5 12c0 5.628 3.875 10.35 9.101 11.647v-7.98H7.127V12H9.6v-1.58c0-4.084 1.849-5.978 5.859-5.978.76 0 2.072.15 2.608.298v3.324a15.38 15.38 0 00-1.386-.044c-1.967 0-2.728.745-2.728 2.683V12h3.92l-.673 3.667h-3.247v8.245C19.896 23.195 24.5 18.135 24.5 12c0-6.627-5.373-12-12-12z" fill="currentColor"/></g><defs><clipPath id="cclip0_3154_11963"><path fill="currentColor" transform="translate(.5)" d="M0 0h24v24H0z"/></clipPath></defs></symbol><symbol fill="none" viewBox="0 0 25 24" id="social_telegram" xmlns="http://www.w3.org/2000/svg"><g clip-path="url(#dclip0_3154_11967)"><path fill-rule="evenodd" clip-rule="evenodd" d="M24.5 12c0 6.627-5.373 12-12 12S.5 18.627.5 12s5.373-12 12-12 12 5.373 12 12zM12.93 8.859c-1.167.485-3.5 1.49-6.998 3.014-.568.226-.866.447-.893.663-.046.366.412.51 1.034.705.085.027.173.054.263.084.613.199 1.437.432 1.865.441.389.008.823-.152 1.302-.48 3.268-2.207 4.955-3.322 5.061-3.346.075-.017.179-.039.249.024.07.062.063.18.056.212-.046.193-1.84 1.862-2.77 2.726-.29.269-.495.46-.537.504-.094.097-.19.19-.282.279-.57.548-.996.96.024 1.632.49.323.882.59 1.273.856.427.291.853.581 1.405.943.14.092.274.187.405.28.497.355.944.673 1.496.623.32-.03.652-.331.82-1.23.397-2.126 1.179-6.73 1.36-8.628a2.123 2.123 0 00-.02-.472.506.506 0 00-.172-.325c-.143-.117-.365-.142-.465-.14-.451.008-1.143.249-4.476 1.635z" fill="currentColor"/></g><defs><clipPath id="dclip0_3154_11967"><path fill="currentColor" transform="translate(.5)" d="M0 0h24v24H0z"/></clipPath></defs></symbol><symbol fill="none" viewBox="0 0 25 24" id="social_whatsapp" xmlns="http://www.w3.org/2000/svg"><path d="M.5 24l1.687-6.163A11.867 11.867 0 01.6 11.891C.603 5.335 5.938 0 12.493 0a11.817 11.817 0 018.413 3.488 11.824 11.824 0 013.48 8.414c-.003 6.557-5.338 11.892-11.893 11.892a11.9 11.9 0 01-5.688-1.448L.5 24zm6.597-3.807c1.676.995 3.276 1.591 5.392 1.592 5.448 0 9.886-4.434 9.889-9.885.002-5.462-4.415-9.89-9.881-9.892-5.452 0-9.887 4.434-9.889 9.884-.001 2.225.651 3.891 1.746 5.634l-.999 3.648 3.742-.981zm11.387-5.464c-.074-.124-.272-.198-.57-.347-.297-.149-1.758-.868-2.031-.967-.272-.099-.47-.149-.669.149-.198.297-.768.967-.941 1.165-.173.198-.347.223-.644.074-.297-.149-1.255-.462-2.39-1.475-.883-.788-1.48-1.761-1.653-2.059-.173-.297-.018-.458.13-.606.134-.133.297-.347.446-.521.151-.172.2-.296.3-.495.099-.198.05-.372-.025-.521-.075-.148-.669-1.611-.916-2.206-.242-.579-.487-.501-.669-.51l-.57-.01c-.198 0-.52.074-.792.372S6.45 7.788 6.45 9.251s1.065 2.876 1.213 3.074c.149.198 2.095 3.2 5.076 4.487.709.306 1.263.489 1.694.626.712.226 1.36.194 1.872.118.571-.085 1.758-.719 2.006-1.413.248-.695.248-1.29.173-1.414z" fill="currentColor"/></symbol><symbol fill="none" viewBox="0 0 25 24" id="social_x" xmlns="http://www.w3.org/2000/svg"><path d="M18.826 1.906H22.2l-7.37 8.424 8.67 11.462h-6.789l-5.317-6.952-6.084 6.952H1.934l7.883-9.01L1.5 1.906h6.961l4.806 6.355 5.56-6.355zm-1.184 17.867h1.87L7.445 3.819H5.44l12.203 15.954z" fill="currentColor"/></symbol><symbol fill="none" viewBox="0 0 25 24" id="social_youtube" xmlns="http://www.w3.org/2000/svg"><g clip-path="url(#gclip0_3154_11965)"><path d="M24.26 7.197s-.233-1.655-.955-2.381c-.914-.957-1.936-.961-2.405-1.018-3.356-.243-8.395-.243-8.395-.243h-.01s-5.039 0-8.395.243c-.469.057-1.49.061-2.405 1.018-.722.726-.951 2.38-.951 2.38S.5 9.143.5 11.084v1.819c0 1.94.24 3.886.24 3.886s.233 1.654.95 2.38c.915.957 2.115.924 2.65 1.027 1.92.183 8.16.24 8.16.24s5.044-.01 8.4-.25c.469-.055 1.49-.06 2.405-1.016.722-.727.956-2.381.956-2.381s.239-1.941.239-3.886v-1.82c0-1.94-.24-3.885-.24-3.885zm-14.24 7.912V8.364l6.483 3.384-6.483 3.361z" fill="currentColor"/></g><defs><clipPath id="gclip0_3154_11965"><path fill="currentColor" transform="translate(.5)" d="M0 0h24v24H0z"/></clipPath></defs></symbol></svg>