<svg xmlns="http://www.w3.org/2000/svg" version="1.1" xmlns:xlink="http://www.w3.org/1999/xlink" width="65" height="64"><svg width="65" height="64" viewBox="0 0 65 64" fill="none" xmlns="http://www.w3.org/2000/svg">
<rect x="0.0449219" width="64" height="64" rx="15" fill="white"></rect>
<path d="M41.2029 49.9609C41.2029 52.3788 39.4853 54.3962 37.2074 54.873C36.0439 55.1481 34.0998 55.3896 32.4067 55.3835C29.0633 55.3682 25.8822 54.6652 23.0195 53.3691C26.9109 52.9595 30.1992 50.5203 31.8678 47.3597C32.7526 45.9109 34.3447 44.9419 36.1695 44.9419C38.9464 44.9419 41.2029 47.1885 41.2029 49.9609Z" fill="#DC2017"></path>
<path d="M23.637 50.2574C21.7448 51.7644 19.0904 51.6819 17.2993 50.1994C16.3593 49.4627 14.9571 48.0964 13.9069 46.7698C11.8342 44.1502 10.4013 41.228 9.63281 38.1866C12.3791 40.9682 16.341 42.0136 19.8558 41.3473C21.5428 41.1333 23.2941 41.7752 24.4299 43.1996C26.1629 45.3668 25.8077 48.5304 23.637 50.2574Z" fill="#DC2017"></path>
<path d="M12.4505 36.7285C10.09 36.1906 8.50095 34.0692 8.54382 31.7462C8.53463 30.5541 8.73058 28.607 9.11329 26.9594C9.87259 23.7071 11.2657 20.7696 13.17 18.2723C12.7046 22.1513 14.3549 25.8957 17.0706 28.2218C18.2892 29.4048 18.8801 31.1715 18.4729 32.9474C17.8544 35.6495 15.1601 37.346 12.4505 36.7285Z" fill="#DC2017"></path>
<path d="M16.0697 19.5623C15.0195 17.3859 15.6901 14.8214 17.5362 13.4061C18.4639 12.6542 20.1111 11.5935 21.642 10.866C24.6608 9.43246 27.8327 8.68664 30.974 8.61633C27.649 10.6704 25.7446 14.2956 25.613 17.8628C25.4446 19.5501 24.4312 21.112 22.787 21.9037C20.2856 23.108 17.276 22.0596 16.0697 19.5623Z" fill="#DC2017"></path>
<path d="M31.7717 11.6852C32.8219 9.50883 35.2467 8.43288 37.5062 8.98919C38.6727 9.24595 40.5312 9.86951 42.0529 10.6092C45.0594 12.0734 47.619 14.0816 49.6336 16.4903C45.9504 15.1759 41.9243 15.9462 39.0493 18.0736C37.6226 18.9967 35.7672 19.1771 34.1231 18.3885C31.6217 17.1841 30.5654 14.1825 31.7686 11.6852H31.7717Z" fill="#DC2017"></path>
<path d="M47.7269 19.0305C50.0875 18.4925 52.4419 19.7152 53.4125 21.8274C53.9391 22.8972 54.6096 24.7343 54.977 26.3879C55.7057 29.6463 55.7271 32.8986 55.0995 35.9737C53.8319 32.2781 50.7182 29.6188 47.2616 28.6988C45.6511 28.1608 44.3499 26.825 43.9458 25.0491C43.3273 22.347 45.0204 19.651 47.7269 19.0336V19.0305Z" fill="#DC2017"></path>
<path d="M51.9274 36.0621C53.8195 37.5691 54.3308 40.1703 53.2837 42.2428C52.7755 43.3218 51.7529 44.9907 50.6905 46.3081C48.5932 48.9094 46.0612 50.9512 43.2598 52.3787C45.3631 49.0866 45.504 44.9968 44.0711 41.7262C43.4894 40.1336 43.7221 38.2874 44.861 36.86C46.5939 34.6928 49.7597 34.3321 51.9305 36.0621H51.9274Z" fill="#DC2017"></path>
</svg><style>@media (prefers-color-scheme: light) { :root { filter: none; } }
@media (prefers-color-scheme: dark) { :root { filter: none; } }
</style></svg>